<?xml version="1.0" encoding="UTF-8" standalone="no"?>
<svg
   enable-background="new 0 0 128 128"
   height="128px"
   id="Layer_1"
   version="1.1"
   viewBox="0 0 128 128"
   width="128px"
   xml:space="preserve"
   sodipodi:docname="icon_cut_dnd.svg"
   inkscape:version="1.3.2 (091e20ef0f, 2023-11-25)"
   xmlns:inkscape="http://www.inkscape.org/namespaces/inkscape"
   xmlns:sodipodi="http://sodipodi.sourceforge.net/DTD/sodipodi-0.dtd"
   xmlns="http://www.w3.org/2000/svg"
   xmlns:svg="http://www.w3.org/2000/svg"><defs
     id="defs10" /><sodipodi:namedview
     id="namedview10"
     pagecolor="#ffffff"
     bordercolor="#000000"
     borderopacity="0.25"
     inkscape:showpageshadow="2"
     inkscape:pageopacity="0.0"
     inkscape:pagecheckerboard="0"
     inkscape:deskcolor="#d1d1d1"
     inkscape:zoom="6.375"
     inkscape:cx="49.176471"
     inkscape:cy="62.745098"
     inkscape:window-width="1920"
     inkscape:window-height="1020"
     inkscape:window-x="0"
     inkscape:window-y="0"
     inkscape:window-maximized="1"
     inkscape:current-layer="g10" /><g
     id="g10"><g
       id="g4"><path
         d="M86.975,91.109l1.716,1.717c0.194,0.193,0.194,0.507,0,0.7c-0.097,0.097-0.224,0.146-0.351,0.146    s-0.254-0.049-0.351-0.146l-1.366-1.365l-7.756,7.752c-0.178,0.178-0.459,0.195-0.656,0.04    C62.643,87.79,40.112,65.24,27.986,49.688c-0.153-0.197-0.137-0.479,0.041-0.655L35.76,41.3L24.688,30.226    c-0.194-0.194-0.194-0.508,0-0.701c0.193-0.194,0.507-0.194,0.701,0l11.424,11.425l3.299,3.299l10.754-10.754L19.574,2.201    L8.819,12.956l2.79,2.789l0.292,0.293l1.896,1.896c0.194,0.193,0.194,0.508,0,0.701c-0.096,0.097-0.223,0.146-0.35,0.146    s-0.254-0.049-0.352-0.146l-1.449-1.449c-3.817,6.306-8.243,13.585-8.453,13.796c-1.252,1.252-1.473,3.247-0.525,4.742    c20.814,32.823,56.856,68.866,89.686,89.688c1.471,0.927,3.527,0.693,4.742-0.525c0.208-0.208,7.411-4.719,13.646-8.608    l-11.441-11.44c-0.193-0.193-0.193-0.507,0-0.701c0.193-0.193,0.508-0.193,0.701,0l11.881,11.88    c0.002,0.002,0.002,0.004,0.004,0.006l3.078,3.078l10.755-10.755L94.428,77.056L83.674,87.811l3.103,3.101    c0.001,0,0.001,0,0.001,0L86.975,91.109z"
         fill="#FFC52F"
         id="path1" /><path
         d="M27.956,9.181l15.712,15.714C43.234,16.418,36.432,9.614,27.956,9.181z"
         fill="#E8E3E3"
         id="path2" /><path
         d="M102.805,84.029l15.51,15.51C117.792,91.218,111.127,84.552,102.805,84.029z"
         fill="#E8E3E3"
         id="path3" /></g><g
       id="g9"><path
         d="    M51.566,33.494L19.574,1.5L8.118,12.956l3.433,3.433c0,0-8.49,14.024-8.709,14.245C1.443,32.03,1.15,34.256,2.248,35.99    c20.733,32.693,57.148,69.106,89.84,89.841c1.736,1.099,3.963,0.806,5.358-0.593c0.219-0.219,14.087-8.868,14.087-8.868    l3.432,3.433l11.456-11.456L94.428,76.354L82.973,87.811l3.65,3.649l-8.107,8.103c-15.624-12.207-37.947-34.544-50.138-50.18    l8.083-8.083l3.65,3.649L51.566,33.494z"
         fill="none"
         stroke="#333333"
         stroke-linecap="round"
         stroke-linejoin="round"
         stroke-miterlimit="10"
         stroke-width="2"
         id="path5" /><path
         id="path4"
         style="display:inline;fill:#df5c4e;fill-opacity:1"
         d="M 90.685547 9.8554688 C 75.666562 9.8554688 63.449219 22.073812 63.449219 37.091797 C 63.449219 52.109782 75.667562 64.328125 90.685547 64.328125 C 105.70253 64.328125 117.91992 52.108782 117.91992 37.091797 C 117.91992 22.072812 105.70253 9.8554688 90.685547 9.8554688 z M 77 35.5 L 104 35.5 A 1 1 0 0 1 105 36.5 A 1 1 0 0 1 104 37.5 L 77 37.5 A 1 1 0 0 1 76 36.5 A 1 1 0 0 1 77 35.5 z " /><line
         fill="none"
         stroke="#333333"
         stroke-linecap="round"
         stroke-linejoin="round"
         stroke-miterlimit="10"
         stroke-width="2"
         x1="25.037"
         x2="36.461"
         y1="29.875"
         y2="41.3"
         id="line5" /><line
         fill="none"
         stroke="#333333"
         stroke-linecap="round"
         stroke-linejoin="round"
         stroke-miterlimit="10"
         stroke-width="2"
         x1="11.258"
         x2="13.447"
         y1="16.096"
         y2="18.285"
         id="line6" /><line
         fill="none"
         stroke="#333333"
         stroke-linecap="round"
         stroke-linejoin="round"
         stroke-miterlimit="10"
         stroke-width="2"
         x1="86.426"
         x2="88.34"
         y1="91.263"
         y2="93.176"
         id="line7" /><line
         fill="none"
         stroke="#333333"
         stroke-linecap="round"
         stroke-linejoin="round"
         stroke-miterlimit="10"
         stroke-width="2"
         x1="99.651"
         x2="111.533"
         y1="104.488"
         y2="116.369"
         id="line8" /><path
         d="    M27.104,8.643c9.443,0,17.104,7.657,17.104,17.104"
         fill="none"
         stroke="#333333"
         stroke-linecap="round"
         stroke-linejoin="round"
         stroke-miterlimit="10"
         stroke-width="2"
         id="path8" /><path
         d="    M101.76,83.481c9.445,0,17.104,7.657,17.104,17.104"
         fill="none"
         stroke="#333333"
         stroke-linecap="round"
         stroke-linejoin="round"
         stroke-miterlimit="10"
         stroke-width="2"
         id="path9" /><circle
         cx="90.685"
         cy="37.092"
         fill="none"
         r="27.731"
         stroke="#333333"
         stroke-linecap="round"
         stroke-linejoin="round"
         stroke-miterlimit="10"
         stroke-width="2"
         id="circle9" /></g></g></svg>
