<?xml version="1.0" ?><!DOCTYPE svg  PUBLIC '-//W3C//DTD SVG 1.1//EN'  'http://www.w3.org/Graphics/SVG/1.1/DTD/svg11.dtd'><svg enable-background="new 0 0 128 128" height="128px" id="Layer_1" version="1.1" viewBox="0 0 128 128" width="128px" xml:space="preserve" xmlns="http://www.w3.org/2000/svg" xmlns:xlink="http://www.w3.org/1999/xlink"><g><path d="M90.866,10.069c-14.353,0-25.986,11.629-25.986,25.977s11.634,25.979,25.986,25.979   s25.986-11.631,25.986-25.979S105.219,10.069,90.866,10.069z M103.814,39H77.875c-1.094,0-1.982-0.904-1.982-2   c0-1.094,0.889-2,1.982-2h25.939c1.095,0,1.983,0.906,1.983,2C105.798,38.096,104.909,39,103.814,39z" fill="#646464"/><path d="M127.641,107.996L95.383,75.745c-0.375-0.375-1.039-0.375-1.414,0l-11.551,11.55   c-0.188,0.188-0.293,0.441-0.293,0.707s0.105,0.519,0.293,0.706l2.974,2.973l-6.839,6.833C63.2,86.381,41.511,64.681,29.412,49.347   l6.816-6.816l2.973,2.972c0.391,0.391,1.023,0.391,1.414,0l11.551-11.547c0.188-0.188,0.293-0.441,0.293-0.707   c0-0.264-0.105-0.52-0.293-0.707L19.908,0.293c-0.391-0.391-1.023-0.391-1.414,0L6.943,11.84c-0.188,0.188-0.292,0.443-0.292,0.707   c0,0.266,0.104,0.52,0.292,0.707l2.906,2.907c-3.228,5.326-7.77,12.795-8.284,13.557c-1.703,1.755-1.991,4.511-0.678,6.584   c21.095,33.256,57.622,69.772,90.894,90.868c0.858,0.543,1.846,0.83,2.859,0.83c1.387,0,2.741-0.549,3.731-1.512   c0.733-0.508,8.126-5.137,13.405-8.429l2.898,2.896c0.392,0.391,1.023,0.391,1.414,0l11.551-11.546   c0.188-0.188,0.293-0.441,0.293-0.707C127.934,108.438,127.828,108.184,127.641,107.996z" fill="#646464"/></g></svg>